<svg xmlns="http://www.w3.org/2000/svg" viewBox="0 0 364 370" fill="none">
    <path fill="#fff" d="M239 0H125C55.96 0 0 55.96 0 125v120c0 69.04 55.96 125 125 125h114c69.04 0 125-55.96 125-125V125C364 55.96 308.04 0 239 0Z"/>
    <path fill="#000" fill-rule="evenodd" d="M64.5358 96H299.349c6.075 0 11 4.925 11 11v104.11H286.59v-13.192c0-4.971-4.029-9-9-9h-10.866c-1.937-6.136-4.523-11.982-7.679-17.46l7.702-7.702c3.515-3.515 3.515-9.214 0-12.728l-19.444-19.445c-3.515-3.515-9.214-3.515-12.728 0l-7.577 7.577c-6.894-4.044-14.384-7.183-22.306-9.252v-9.642c0-4.97-4.029-9-9-9h-27.499c-4.971 0-9 4.03-9 9v9.803c-7.295 1.961-14.217 4.83-20.639 8.479l-6.95-6.958c-3.514-3.518-9.215-3.519-12.731-.003l-19.4373 19.437c-3.5162 3.516-3.5145 9.218.0037 12.732l6.6366 6.628c-3.443 5.785-6.2445 11.995-8.3084 18.534H86.9017c-4.9706 0-9 4.029-9 9v13.192H53.5358V107c0-6.075 4.9249-11 11-11Zm-11 124.11v11.899c0 6.076 4.9249 11 11 11H299.349c6.075 0 11-4.924 11-11V220.11H53.5358Zm-9-113.11c0-11.0457 8.9543-20 20-20H299.349c11.046 0 20 8.9543 20 20v125.009c0 11.046-8.954 20-20 20H199.15l33.229 34.584c3.664 3.813.962 10.157-4.326 10.157h-91.614c-5.288 0-7.99-6.344-4.327-10.157l33.23-34.584H64.5358c-11.0457 0-20-8.954-20-20V107ZM177.823 252.009l-34.341 35.741h77.528l-34.341-35.741h-8.846Zm44.985-40.899c-1.96-20.676-19.372-36.852-40.562-36.852-21.19 0-38.602 16.176-40.562 36.852h81.124Z" clip-rule="evenodd"/>
</svg>
