<svg xmlns="http://www.w3.org/2000/svg" viewBox="0 0 12 10" fill="none">
    <path fill="#fff" fill-rule="evenodd" d="M.87332 1.39299H11.1267c.2653 0 .4803.21505.4803.48033v4.54607h-1.0374v-.57606c0-.21705-.176-.393-.393-.393h-.47452c-.08457-.26791-.19752-.52322-.33533-.7624l.33633-.33633c.15347-.15347.15347-.4023 0-.55577l-.84907-.84907c-.15347-.15348-.4023-.15348-.55578 0l-.33085.33085c-.30103-.1766-.62808-.31364-.97399-.40399v-.42103c0-.21705-.17595-.393-.393-.393H5.39962c-.21704 0-.39299.17595-.39299.393v.42805c-.31853.08563-.62081.21092-.90122.37024l-.30347-.30382c-.15345-.15362-.4024-.15369-.55594-.00016l-.84874.84875c-.15354.15354-.15347.40249.00016.55594l.28979.28945c-.15031.25261-.27266.52379-.36278.80929h-.47449c-.21705 0-.393.17595-.393.393v.57606H.392994V1.87332c0-.26528.21505-.48033.480326-.48033Zm-.480326 5.4194v.51959c0 .26527.215049.48032.480326.48032H11.1267c.2653 0 .4803-.21505.4803-.48032v-.51959H.392994ZM0 1.87332C0 1.391.390999 1 .87332 1H11.1267c.4823 0 .8733.391.8733.87332v5.45866c0 .48232-.391.87332-.8733.87332H6.75135l1.45098 1.5101c.15998.1665.04198.4435-.18892.4435H4.013c-.2309 0-.3489-.277-.18893-.4435l1.45098-1.5101H.87332C.390999 8.2053 0 7.8143 0 7.33198V1.87332ZM5.82006 8.2053 4.32053 9.76593h3.38534L6.20635 8.2053h-.38629Zm1.96437-1.78591c-.08559-.90287-.8459-1.60918-1.77117-1.60918-.92528 0-1.68559.70631-1.77118 1.60918h3.54235Z" clip-rule="evenodd"/>
</svg>
